# xmcd
#
# Track frame offsets: 
#        150
#        18675
#        39375
#        50250
#        63450
#        79725
#        89025
#        104625
#        129075
#        139425
#        153450
#        170100
#        179250
#        198675
#        208725
#        228825
#
# Disc length: 3297 seconds
#
# Revision: 0
# Processed by: cddbd v1.5.1PL2 Copyright (c) Steve Scherf et al.
# Submitted via: ExactAudioCopy v0.95b3
#
DISCID=e90cdf10
DTITLE=Jerry McCain - Soul Shag
DYEAR=2000
DGENRE=Blues
TTITLE0=Soul Shag
TTITLE1=She's Tuff (Shag Version)
TTITLE2=She's Tuff (Original Version)
TTITLE3=Fat Back
TTITLE4=Love Whip
TTITLE5=Tung Tang Tigalu
TTITLE6=Blues Singing Man
TTITLE7=If 'm Your Fool
TTITLE8=Woodpecker
TTITLE9=If I'm Your Fool
TTITLE10=53 Year Old Man
TTITLE11=Steady
TTITLE12=She Tore Me Up
TTITLE13=Rough Stuff
TTITLE14=Roller Disco Queen
TTITLE15=I'm Waiting On Jesus
EXTD=
EXTT0=
EXTT1=
EXTT2=
EXTT3=
EXTT4=
EXTT5=
EXTT6=
EXTT7=
EXTT8=
EXTT9=
EXTT10=
EXTT11=
EXTT12=
EXTT13=
EXTT14=
EXTT15=
PLAYORDER=
